<svg width="16" height="16" viewBox="0 0 16 16" fill="none" xmlns="http://www.w3.org/2000/svg">
<path d="M15.7983 14.854L11.2077 10.2601C12.1127 9.17471 12.657 7.78769 12.657 6.27278C12.657 2.81669 9.82068 0.00656128 6.3318 0.00656128C2.84291 0.00656128 0 2.81996 0 6.27606C0 9.73215 2.83636 12.5423 6.32524 12.5423C7.80736 12.5423 9.17143 12.034 10.2535 11.1848L14.8605 15.7918C15.1294 16.0607 15.5295 16.0607 15.7983 15.7918C16.0672 15.5229 16.0672 15.1229 15.7983 14.854ZM1.3444 6.27606C1.3444 3.56102 3.58069 1.35424 6.32524 1.35424C9.06978 1.35424 11.3061 3.56102 11.3061 6.27606C11.3061 8.99109 9.06978 11.1979 6.32524 11.1979C3.58069 11.1979 1.3444 8.98781 1.3444 6.27606Z" fill="white"/>
</svg>
